<?xml version="1.0" encoding="UTF-8"?>
<svg id="Capa_2" data-name="Capa 2" xmlns="http://www.w3.org/2000/svg" viewBox="0 0 62.72 74.15">
  <defs>
    <style>
      .cls-1 {
        fill: #88888a;
      }
    </style>
  </defs>
  <g id="Capa_1-2" data-name="Capa 1">
    <path class="cls-1" d="M47.1,74.15H5.06c-2.79,0-5.06-2.27-5.06-5.06v-33.22c0-2.79,2.27-5.06,5.06-5.06h42.04c2.79,0,5.06,2.27,5.06,5.06v7.24h-2.5v-7.24c0-1.41-1.15-2.56-2.56-2.56H5.06c-1.41,0-2.56,1.15-2.56,2.56v33.22c0,1.41,1.15,2.56,2.56,2.56h42.04c.19,0,.38-.02.6-.08l.59,2.43c-.4.1-.79.14-1.18.14Z"/>
    <path class="cls-1" d="M44.75,32.06h-2.5v-13.4c0-4.32-1.68-8.37-4.73-11.43-3.05-3.05-7.11-4.73-11.44-4.73-8.92,0-16.17,7.25-16.17,16.16v13.4h-2.5v-13.4C7.41,8.37,15.79,0,26.08,0c4.99,0,9.68,1.94,13.2,5.47,3.52,3.52,5.47,8.21,5.47,13.19v13.4ZM38.27,32.06h-2.5v-13.36c0-2.59-1.01-5.02-2.84-6.86-1.83-1.83-4.27-2.84-6.85-2.84-5.35,0-9.7,4.35-9.7,9.7v13.36h-2.5v-13.36c0-6.73,5.47-12.2,12.2-12.2,3.25,0,6.31,1.27,8.61,3.58,2.31,2.31,3.58,5.37,3.58,8.62v13.36Z"/>
    <rect class="cls-1" x="1.25" y="60.89" width="30.36" height="2.5"/>
    <path class="cls-1" d="M46.2,74.15c-9.11,0-16.52-7.41-16.52-16.52s7.41-16.52,16.52-16.52,16.52,7.41,16.52,16.52-7.41,16.52-16.52,16.52ZM46.2,43.61c-7.73,0-14.02,6.29-14.02,14.02s6.29,14.02,14.02,14.02,14.02-6.29,14.02-14.02-6.29-14.02-14.02-14.02Z"/>
    <path class="cls-1" d="M45.08,65.04c-.23,0-.46-.06-.66-.19l-6-3.75c-.59-.37-.76-1.14-.4-1.72.37-.59,1.14-.76,1.72-.4l5.04,3.15,8.93-11.56c.42-.55,1.21-.65,1.75-.22.55.42.65,1.21.23,1.75l-9.62,12.46c-.24.32-.61.49-.99.49Z"/>
  </g>
</svg>