<?xml version="1.0" encoding="UTF-8"?>
<svg id="Capa_2" data-name="Capa 2" xmlns="http://www.w3.org/2000/svg" viewBox="0 0 51.66 53.8">
  <defs>
    <style>
      .cls-1 {
        fill: #fff;
      }
    </style>
  </defs>
  <g id="Capa_1-2" data-name="Capa 1">
    <path class="cls-1" d="M51.66,5.09v43.4c-.3,2.83-2.61,4.88-5.41,5.1-8.56.67-18-.52-26.65-.01-2.94-.41-5.03-2.58-5.26-5.55-.34-4.3.27-9.05,0-13.4.19-2.18,2.91-2.62,3.78-.58l.03,13.67c.12,1.24.77,1.99,2.05,2.07h25.9c.62-.07,1.38-.55,1.61-1.14l.15-42.95c.02-1.06-.88-1.85-1.91-1.91h-25.75c-1.27.08-1.93.83-2.05,2.07l-.03,13.67c-.78,1.94-3.48,1.69-3.76-.44.29-4.42-.45-9.47,0-13.82C14.64,2.58,16.67.47,19.32.04l27.07-.04c2.72.3,4.99,2.3,5.26,5.09Z"/>
    <path class="cls-1" d="M32.41,26.74c.03.93-.93,2.03-1.85,2.03H7.18c1.18,1.43,2.8,2.44,4.11,3.73.94.92,1.72,1.88.74,3.18-1.27,1.68-3.05-.08-4.16-.97-2.55-2.04-4.75-4.51-7.32-6.54-.81-.88-.71-2.09.15-2.9,2.93-2.18,5.52-5.26,8.38-7.45.92-.7,1.85-.96,2.75-.01,1.21,1.27.35,2.27-.61,3.21-1.34,1.3-2.98,2.37-4.19,3.8h23.53c.88,0,1.82,1.04,1.85,1.93Z"/>
  </g>
</svg>