<?xml version="1.0" encoding="UTF-8"?>
<svg id="Capa_2" data-name="Capa 2" xmlns="http://www.w3.org/2000/svg" viewBox="0 0 62.28 62.34">
  <defs>
    <style>
      .cls-1 {
        fill: #fff;
      }
    </style>
  </defs>
  <g id="Capa_1-2" data-name="Capa 1">
    <g>
      <path class="cls-1" d="M61.76,26.82c-1.04-2.75-3.1-3.19-5.34-4.6l-1.17-2.82c.77-2.32,1.6-4.1.73-6.56-.58-1.65-4.81-5.85-6.43-6.49-2.57-1.01-4.29-.09-6.73.64l-2.9-1.22c-1.25-2.35-2.09-4.63-4.91-5.42-1.47-.41-5.1-.41-6.68-.23-3.25.37-4.75,2.83-5.93,5.57l-3.02,1.32c-2.38-.82-4.25-1.65-6.76-.63-1.77.72-5.52,4.5-6.25,6.28-1.05,2.58-.13,4.36.6,6.82l-1.17,2.82c-2.11,1.12-4.19,1.87-5.21,4.22-.82,1.9-.81,7.47.05,9.35,1.09,2.39,3.13,2.88,5.16,4.14l1.18,2.9c-.78,2.33-1.62,4.09-.69,6.56.65,1.72,4.88,5.98,6.62,6.56,2.52.85,4.16-.05,6.53-.72l2.91,1.23c1.38,3.03,2.79,5.39,6.46,5.69,3.55.29,7.59.33,9.68-2.98.41-.66,1.06-2.47,1.58-2.81.16-.11,2.57-1.13,2.71-1.14.48-.05,2.34.79,3.01.94,1.59.34,3.2.14,4.62-.69,1.07-.63,4.72-4.35,5.28-5.45,1.36-2.7.35-4.72-.4-7.37l1.23-2.78c2.08-1.11,4.19-1.93,5.15-4.28.78-1.89.8-6.92.08-8.83ZM58.08,33.22c-.28,2.53-3.74,2.32-4.91,4-.44.63-.93,2.41-1.27,3.25-.42,1.02-1.05,1.53-.87,2.76.27,1.81,1.95,3.65.72,5.35-.41.57-2.52,2.66-3.1,3.1-1.71,1.31-3.53-.33-5.29-.66-1.64-.3-4.16,1.75-5.91,1.98-1.93,1.2-1.68,4.79-4.24,5.07-.99.11-3.14.1-4.13,0-2.17-.22-2.4-2.71-3.4-4.22-.7-1.06-2.43-1.35-3.6-1.83-.63-.26-1.37-.81-2-.97-2.08-.53-4.35,2.14-6.37.69-.61-.44-2.61-2.48-3.1-3.1-.49-.62-.68-1.03-.55-1.84.17-1.11,1.28-3,1.27-4.03-.02-.84-.75-1.79-1.06-2.57-.47-1.17-.74-2.81-1.74-3.55-1.36-1.01-4.09-1.33-4.3-3.32-.11-1.01-.11-3.39,0-4.39.26-2.28,3.44-2.33,4.78-3.75l2.27-5.35c.21-1.83-2.04-4.32-.85-6.01.33-.47,2.95-3.09,3.42-3.42,1.73-1.21,4.02.96,5.68.91.77-.03,1.9-.8,2.66-1.1.82-.33,2.12-.64,2.8-1.08,1.6-1.02,1.63-4.55,3.75-4.9.94-.16,3.5-.12,4.5-.04,2.27.2,2.47,3.43,3.87,4.78l5.36,2.27c1.86.22,4.29-2.05,6.01-.85.49.34,2.93,2.8,3.29,3.29.18.25.41.67.46.96.25,1.33-1.34,3.57-1.24,4.98.09,1.27,1.91,3.7,2.04,5.2,1.27,1.85,4.8,1.64,5.06,4.24.1.98.11,3.17,0,4.13Z"/>
      <path class="cls-1" d="M43.4,38.83c-6.23,9.92-21.19,8.7-25.66-2.1-1.2-2.91-1.67-7.93-.13-10.77,1.09-2.01,4.26-1.04,3.87,1.42-.4,2.58-1.08,3.25-.42,6.17,2,8.93,14.21,10.82,18.9,3.01,4.55-7.57-1.72-17.04-10.47-15.63-1.47.24-3.66,1.47-4.47-.64-1.11-2.92,3.29-3.49,5.24-3.62,11.66-.76,19.36,12.26,13.13,22.17Z"/>
    </g>
  </g>
</svg>