<?xml version="1.0" encoding="UTF-8"?>
<svg id="Capa_2" data-name="Capa 2" xmlns="http://www.w3.org/2000/svg" viewBox="0 0 61.69 42.09">
  <defs>
    <style>
      .cls-1 {
        fill: #88888a;
      }
    </style>
  </defs>
  <g id="Capa_1-2" data-name="Capa 1">
    <path class="cls-1" d="M57.76,42.09H3.94c-2.17,0-3.94-1.77-3.94-3.94V3.94C0,1.77,1.77,0,3.94,0h53.82c2.17,0,3.94,1.77,3.94,3.94v34.22c0,2.17-1.77,3.94-3.94,3.94ZM3.94,2.5c-.79,0-1.44.64-1.44,1.44v34.22c0,.79.64,1.44,1.44,1.44h53.82c.79,0,1.44-.64,1.44-1.44V3.94c0-.79-.64-1.44-1.44-1.44H3.94Z"/>
    <path class="cls-1" d="M30.98,27.41c-1.38,0-2.77-.49-3.87-1.47L1.27,2.92l1.66-1.87,25.85,23.02c1.25,1.11,3.14,1.12,4.39.01L59.01,1.31l1.65,1.88-25.84,22.77c-1.1.97-2.47,1.45-3.84,1.45Z"/>
    <rect class="cls-1" x="-3.31" y="27.68" width="28.52" height="2.5" transform="translate(-18.53 19.57) rotate(-51.65)"/>
    <rect class="cls-1" x="49.79" y="14.78" width="2.5" height="29.03" transform="translate(-7.32 36.9) rotate(-37.28)"/>
  </g>
</svg>