<?xml version="1.0" encoding="UTF-8"?>
<svg id="Capa_2" data-name="Capa 2" xmlns="http://www.w3.org/2000/svg" viewBox="0 0 74.9 54.02">
  <defs>
    <style>
      .cls-1 {
        fill: #005aa3;
      }
    </style>
  </defs>
  <g id="Capa_1-2" data-name="Capa 1">
    <g>
      <path class="cls-1" d="M74.66,19.06l-6.72-8.79s0,0,0,0c-.01-.05-.03-.09-.05-.14-.01-.03-.02-.06-.04-.09-.04-.07-.08-.14-.13-.2-.01-.02-.03-.03-.05-.05-.04-.05-.08-.09-.13-.13,0,0-.01-.01-.02-.02-.02-.01-.03-.02-.05-.03-.05-.03-.09-.06-.15-.09-.03-.01-.06-.03-.09-.04-.03-.01-.05-.02-.07-.03L37.8.06c-.23-.07-.48-.07-.71,0L7.73,9.45s0,0,0,0c0,0,0,0-.01,0-.05.02-.1.04-.15.07,0,0-.01,0-.02,0-.01,0-.02,0-.04.02,0,0,0,0,0,0-.13.08-.25.18-.35.3,0,0,0,0,0,0L.24,18.91c-.23.3-.3.7-.18,1.07.12.36.41.65.77.76l6.09,1.85v22.27c0,.53.35.99.86,1.13l29.36,7.99c.1.03.2.04.31.04s.21-.01.31-.04l29.36-7.99c.51-.14.86-.6.86-1.13v-22.12l6.09-1.85c.37-.11.66-.4.77-.76.12-.36.05-.76-.18-1.07ZM37.45,2.4l25.25,8.08-25.25,6.87-25.25-6.87L37.45,2.4ZM8.54,11.9l26.95,7.33-5.95,7.8L3.12,18.99l5.42-7.09ZM9.25,23.3l20.37,6.2c.11.03.23.05.34.05.36,0,.7-.16.93-.46l5.39-7.05v29.28l-27.03-7.36v-20.66ZM65.64,43.96l-27.03,7.36v-29.13l5.39,7.05c.23.29.57.46.93.46.11,0,.23-.02.34-.05l20.37-6.2v20.51ZM45.37,27.17l-6.05-7.92,26.95-7.33,5.51,7.21-26.41,8.03Z"/>
      <path class="cls-1" d="M28.21,33.17l-12.6-3.38c-.62-.17-1.26.2-1.43.83-.17.62.2,1.26.83,1.43l12.6,3.38c.1.03.2.04.3.04.52,0,.99-.34,1.13-.87.17-.62-.2-1.26-.83-1.43Z"/>
    </g>
  </g>
</svg>