<?xml version="1.0" encoding="UTF-8"?>
<svg id="Capa_2" data-name="Capa 2" xmlns="http://www.w3.org/2000/svg" viewBox="0 0 56.39 67.33">
  <defs>
    <style>
      .cls-1 {
        fill: #fff;
      }
    </style>
  </defs>
  <g id="Capa_1-2" data-name="Capa 1">
    <g>
      <path class="cls-1" d="M56.15,11.71c-.08-.58-.55-1.02-1.13-1.06C34.34,9.24,30,1.99,29.96,1.92l-.68-1.28c-.21-.4-.62-.64-1.08-.64h0c-.45,0-.86.24-1.08.64l-.68,1.28c-.04.07-4.38,7.32-25.06,8.73-.58.04-1.05.49-1.13,1.06-.05.37-4.56,37.79,27.36,55.47.18.1.39.15.59.15s.41-.05.59-.15c31.91-17.68,27.41-55.1,27.36-55.47ZM28.2,64.71C1.2,49.31,2.13,18.87,2.58,13.01c18.26-1.45,24.17-7.42,25.61-9.34,0,0,0,0,0,0s0,0,0,0c1.45,1.92,7.35,7.89,25.61,9.34.45,5.86,1.37,36.3-25.62,51.7Z"/>
      <path class="cls-1" d="M28.04,43.58c-.27,0-.55-.07-.79-.23l-10.33-6.44c-.7-.44-.92-1.37-.48-2.07.44-.7,1.37-.92,2.07-.48l9.15,5.7,15.07-20.47c.49-.67,1.43-.81,2.1-.32.67.49.81,1.43.32,2.1l-15.89,21.6c-.29.4-.75.61-1.21.61Z"/>
    </g>
  </g>
</svg>