<?xml version="1.0" encoding="UTF-8"?>
<svg id="Capa_2" data-name="Capa 2" xmlns="http://www.w3.org/2000/svg" viewBox="0 0 586.92 160.67">
  <defs>
    <style>
      .cls-1 {
        fill: #fff;
      }
    </style>
  </defs>
  <g id="Capa_1-2" data-name="Capa 1">
    <g>
      <path class="cls-1" d="M149.66,18.32c-9.55-4.23-20.37-4.62-30.2-1.08-9.45,3.55-17.54,9.98-23.15,18.37-2.45,3.63-4.36,7.6-5.66,11.78-2.84,9.92-3.38,20.35-1.59,30.51,1.6,10.11,6.37,19.44,13.63,26.65,2.97,3,6.33,5.6,9.98,7.72,4.06,1.97,8.3,3.54,12.66,4.68-1.38,2.8-1.48,6.07-.26,8.95,1.06,1.93,2.65,3.52,4.58,4.58-2.42,2.92-4.6,7.27-4.17,10.29.43,2.69,2.56,5.48,5.14,5.4h29.48c1.65-.01,3.69-.42,4.22-1.7,1.03-2.93-2.26-6.64-4.48-9.11l-3.65-4.17c-1.44-1.65,1.49-7.41,1.23-9.26-.18-1.94-1.21-3.06-2.42-4.17-.43-1.1,1.13-2.42,1.59-3.55.04-.06.07-.12.1-.18.53-1.1.07-2.42-1.03-2.96-1.55-.33-2.82,1.32-3.81,2.83-.86,1.2-2.12,3.21-1.54,4.53.58,1.32,2.92,1.56,3.34,2.52.62,1.95.12,4.08-1.29,5.56-1.59,1.69-2.47,4.36-1.8,5.81.67,1.46,5.29,4.21,5.29,4.21,1.6,1.21,2.38,3.52,2.22,5.51h-26.91c-3.31-.18,0-4.68,0-4.68,1.01-1.29,2.09-2.53,3.24-3.7,1.12-.85,1.57-2.32,1.13-3.65-.34-.69-.9-1.25-1.59-1.59-5.5-2.98-5.45-5.56-4.53-8.13,1.07-2.87,3.69-4.87,6.74-5.14-.15-1.08-.82-1.96-.82-3.04-2.22.22-4.46.22-6.69,0-43.63-5.61-47.23-73-10.29-89.42,9.95-4.37,21.28-4.37,31.23,0,7.8,3.77,14.03,10.16,17.6,18.06,3.93,9.33,5.69,19.42,5.14,29.53-1.23,12.09-3.34,19.65-9.93,27.01l-14.92-20.58s.57-3.76.57-5.5c.99-5.67.85-11.47-.41-17.08-1.96-5.29-5.28-9.97-9.62-13.58-1.34,1.7-6.48,7.87-6.48,7.87l-8.23-8.85-3.09,2.68,8.64,9.36-4.78,5.61-9.16-9.62-2.88,2.78,9.11,10.29-6.59,7.92s5.14,10.03,12.91,11.58c5.78.72,11.65.32,17.29-1.18,1.59,2.42,16.41,23,17.34,25.11,8.93-7.43,14.38-18.24,15.02-29.84,2.93-19.81-2.88-43.58-27.47-55.92Z"/>
      <path class="cls-1" d="M171.24,4.46c.24.05.48.11.72.16-.52-.1-.98-.19-1.33-.25.2.03.41.06.62.1-1.1-.22-2.2-.43-3.31-.64-10.91-2.48-22.54-3.82-34.6-3.82-13.59,0-26.63,1.7-38.72,4.82.33-.09.65-.2.99-.29l-.66.12C40.01,14.52,0,44.87,0,80.77s43.39,68.76,101.84,77.25c7.2,1.23,14.64,2.05,22.28,2.42,0-.01,0-.02,0-.04,3.04.17,6.11.27,9.21.27,5.7,0,11.31-.3,16.79-.88h.09c9.36-.86,18.41-2.35,27.03-4.42-8.92,2.2-18.31,3.75-28.05,4.57,66.15-4.77,118.07-38.52,118.07-79.17,0-36.14-40.53-66.65-96.03-76.32ZM22.67,80.33C22.67,37.6,72.31,2.83,133.33,2.83s110.67,34.77,110.67,77.5-49.64,77.5-110.67,77.5S22.67,123.07,22.67,80.33Z"/>
      <path class="cls-1" d="M297.6,73.31c7.66-.2,10.38-6.73,10.38-6.73v5.62h6.35v-25.19h-15.41v7.33h6.46c.19,7.01-1.25,11.58-5.97,11.47-7.26-.17-7.74-12.09-7.74-15.93,0,0-.71-18.04,7.59-17.92,3.96.06,5.37,3.09,6.17,7.59h8.45c-.06-1.86-.91-4.02-1.55-5.92-.64-1.9-3.62-9.04-13.12-9.04-14.59,0-16.91,14.67-16.91,24.81s3.74,24.21,15.31,23.92Z"/>
      <path class="cls-1" d="M330.5,53.17h1.55c2.48,0,4.36-.06,6.72.62,2.98.87,3.77,4.57,3.83,7.42.06,3.1-.39,9,.36,10.99h9.82c-1.56-1.27-.56-12.01-.99-14.4-.87-4.82-1.45-6.34-6.41-8.35,5.17-2.07,6.86-6.99,6.86-11.24,0-9.88-7.13-12.51-14.63-12.51h-16.76v46.5h9.68v-19.03ZM330.87,32.84h5.42c3.29.06,6.13,1,6.13,6.21,0,4.65-2.9,6.44-5.76,6.63h-5.79v-12.83Z"/>
      <path class="cls-1" d="M372.98,73.31c8.81,0,14.69-4.9,14.69-15.19V25.7h-8.68v28.84c0,4.46-.31,10.7-5.95,10.7s-6.2-6.24-6.2-10.7v-28.84h-8.68v32.42c0,10.29,6.5,15.19,14.82,15.19Z"/>
      <path class="cls-1" d="M418.11,51.91c3.29-2.6,4.69-8.07,4.69-12.04,0-6.51-3.19-14.18-11.5-14.18h-17.73v46.5h9.72v-17.67h4.78c3.35.06,7.3-.44,10.03-2.61ZM403.3,46.46v-13.17h4.07c5.22,0,7.11,1.85,7.11,6.13,0,5.64-2.64,7.04-6.42,7.04h-4.75Z"/>
      <path class="cls-1" d="M443.48,73.31c14.26,0,16-9.05,16-21.45v-6.63c-.37-11.84-2.11-20.64-16-20.64s-15.57,8.8-15.94,20.64v6.63c0,12.4,1.68,21.45,15.94,21.45ZM443.48,31.59c6.45,0,6.26,8.25,6.26,11.96v11.9c0,4.46-.06,10.85-6.26,10.85s-6.26-6.26-6.26-10.11v-12.9c0-3.6-.56-11.72,6.26-11.72Z"/>
      <path class="cls-1" d="M290.82,80l-14.29,55.5h11.98l2.95-12.46h13.1l2.95,12.46h11.98l-13.57-55.5h-15.09ZM292.6,114.94l4.87-24.26,4.71,24.26h-9.58Z"/>
      <path class="cls-1" d="M338.8,101.13c-3.28-2.07-5.96-3.7-5.96-7.92,0-3.77,2.24-6.18,5.74-6.18,5.74,0,7.19,4.88,7.11,9.84h10.06c-.07-5.48-.63-18.21-17.25-18.21-11.03,0-17.4,6.18-17.4,15.65,0,2.96.97,5.99,2.68,8.51,4.25,5.55,12.03,7.58,17.47,11.8,2.68,1.85,4.17,4.07,4.17,7.33,0,4.22-2.09,6.51-6.48,6.51-5.14,0-6.78-3.92-6.56-9.33v-1.61h-11.43v2.42c0,9.92,5.47,16.87,17.99,16.87,10.21,0,18.22-5.48,18.22-15.99,0-4.81-1.12-8.14-4.7-11.62-2.91-2.81-10.24-5.96-13.67-8.1Z"/>
      <path class="cls-1" d="M381.54,128.47c-7.15,0-7.5-7.47-7.5-12.06v-15.39c0-4.29-.82-13.99,7.38-13.99,7.47,0,6.22,11.2,6.22,11.2h10.78c.07-1.41-.07-3.8-.22-5.21-.75-9.47-6.78-14.21-16.09-14.36-16.69,0-19.28,10.51-19.73,24.64v7.92c0,14.8,2.58,25.61,19.73,25.61,11.63,0,15.7-7.77,16.22-17.91.07-1.04.15-2.15.22-3.18h-11.16c-.22,3.55-.12,12.73-5.86,12.73Z"/>
      <polygon class="cls-1" points="416.38 111.17 435.25 111.17 435.25 102.33 416.38 102.33 416.38 89.5 436.5 89.5 436.5 80 405.3 80 405.3 135.5 437.05 135.5 437.05 126.33 416.38 126.33 416.38 111.17"/>
      <polygon class="cls-1" points="469.85 118.76 455.5 80 442.55 80 442.55 135.5 453.1 135.5 453.19 96.27 467.3 135.5 480.42 135.5 480.42 80 469.83 80 469.85 118.76"/>
      <path class="cls-1" d="M505.66,128.64c-7.15,0-7.86-7.64-7.86-12.23v-15.39c0-4.29.33-13.99,8.53-13.99,5.14,0,5.53,7.65,5.59,11.3h10.31c.07-1.41-.07-3.9-.22-5.31-.75-9.47-6.36-14.21-15.68-14.36-16.69,0-19.81,10.51-20.26,24.64v7.92c0,14.8,3.12,25.61,20.26,25.61,11.63,0,15.85-7.77,16.37-17.91.07-1.04.15-2.56.22-3.59h-11.31c-.22,3.55-.22,13.31-5.96,13.31Z"/>
      <rect class="cls-1" x="529.4" y="80" width="11.32" height="55.5"/>
      <path class="cls-1" d="M566.92,78.67c-16.69,0-19.12,10.51-19.57,24.64v7.92c0,14.8,2.43,25.61,19.57,25.61s19.99-10.8,19.99-25.61v-7.92c-.45-14.13-3.3-24.64-19.99-24.64ZM574.92,115.52c0,5.33-.54,13.29-7.99,13.29s-7.53-7.82-7.53-12.41v-15.39c0-4.29-.67-13.99,7.53-13.99,7.75,0,7.99,9.84,7.99,14.28v14.21Z"/>
      <path class="cls-1" d="M252.67,135.54c-2.67,0-4.82,2.15-4.82,4.8s2.15,4.82,4.82,4.82,4.8-2.15,4.8-4.82-2.15-4.8-4.8-4.8ZM252.67,144.25c-2.17,0-3.92-1.74-3.92-3.92s1.75-3.89,3.92-3.89,3.89,1.74,3.89,3.89-1.74,3.92-3.89,3.92Z"/>
      <path class="cls-1" d="M255.22,139.37c0-.54-.15-1.04-.61-1.35-.39-.25-.97-.26-1.41-.26h-2.51v5.2h1.02v-2.2h1.02l1.15,2.2h1.19l-1.26-2.2c.92-.06,1.42-.45,1.42-1.4ZM253.22,139.99h-1.52v-1.46h1.26c.5,0,1.24,0,1.24.67s-.4.8-.98.78Z"/>
    </g>
  </g>
</svg>