<?xml version="1.0" encoding="UTF-8"?>
<svg id="Capa_2" data-name="Capa 2" xmlns="http://www.w3.org/2000/svg" viewBox="0 0 48.77 47.5">
  <defs>
    <style>
      .cls-1 {
        fill: #fff;
      }
    </style>
  </defs>
  <g id="Capa_1-2" data-name="Capa 1">
    <path class="cls-1" d="M38.19,17.86H10.58c-1.1,0-2-.9-2-2s.9-2,2-2h27.61c1.1,0,2,.9,2,2s-.9,2-2,2Z"/>
    <path class="cls-1" d="M38.19,26.53H10.58c-1.1,0-2-.9-2-2s.9-2,2-2h27.61c1.1,0,2,.9,2,2s-.9,2-2,2Z"/>
    <path class="cls-1" d="M38.19,35.19H10.58c-1.1,0-2-.9-2-2s.9-2,2-2h27.61c1.1,0,2,.9,2,2s-.9,2-2,2Z"/>
    <path class="cls-1" d="M41.72,4c1.68,0,3.05,1.37,3.05,3.05v33.4c0,1.68-1.37,3.05-3.05,3.05H7.05c-1.68,0-3.05-1.37-3.05-3.05V7.05c0-1.68,1.37-3.05,3.05-3.05h34.67M41.72,0H7.05C3.17,0,0,3.17,0,7.05v33.4c0,3.88,3.17,7.05,7.05,7.05h34.67c3.88,0,7.05-3.17,7.05-7.05V7.05c0-3.88-3.17-7.05-7.05-7.05h0Z"/>
  </g>
</svg>