<?xml version="1.0" encoding="UTF-8"?>
<svg id="Capa_2" data-name="Capa 2" xmlns="http://www.w3.org/2000/svg" viewBox="0 0 55.44 77.45">
  <defs>
    <style>
      .cls-1 {
        fill: #ed6b1f;
      }
    </style>
  </defs>
  <g id="Capa_1-2" data-name="Capa 1">
    <g>
      <path class="cls-1" d="M52.8,44.62l-.89-.45c-.62-.32-1.07-.89-1.22-1.57-.16-.68,0-1.39.42-1.94l.6-.79c1.36-1.79,1.34-4.18-.07-5.94-1.2-1.5-3.07-2.13-4.87-1.7V4.31c0-2.37-1.93-4.31-4.31-4.31H4.31C1.93,0,0,1.93,0,4.31v53.67c0,2.37,1.93,4.3,4.31,4.3h22.48v13.92c0,.49.29.93.73,1.13.16.07.34.11.51.11.3,0,.59-.11.82-.31l7.92-7.01,7.93,7.01c.37.32.89.4,1.34.2.45-.2.73-.65.73-1.13v-14.7c.84-1.08,1.19-2.48.89-3.92l-.2-.97c-.14-.68.03-1.39.46-1.93s1.08-.87,1.78-.88l.99-.02c2.25-.05,4.1-1.56,4.6-3.76.5-2.2-.51-4.36-2.52-5.38ZM2.49,57.98V4.31c0-1,.82-1.82,1.82-1.82h38.17c1,0,1.82.81,1.82,1.82v28.82c-.44.06-.9,0-1.32-.2-.63-.3-1.09-.86-1.26-1.54l-.24-.96c-.55-2.18-2.44-3.65-4.69-3.65s-4.14,1.47-4.69,3.65l-.24.96c-.17.68-.63,1.24-1.26,1.54-.63.3-1.35.31-1.99.02l-.91-.41c-2.05-.93-4.37-.37-5.78,1.39-1.4,1.76-1.43,4.15-.07,5.94l.6.79c.42.56.58,1.26.42,1.94-.16.68-.6,1.25-1.22,1.57l-.89.45c-2.01,1.02-3.02,3.19-2.52,5.38.5,2.2,2.35,3.71,4.6,3.76l.99.02c.7.02,1.35.34,1.78.88.43.54.6,1.25.46,1.93l-.2.97c-.16.76-.13,1.51.05,2.21H4.31c-1,0-1.82-.81-1.82-1.81ZM37.61,67.53c-.47-.42-1.18-.42-1.65,0l-6.68,5.91v-10.26c.46.14.92.21,1.38.21,1.39,0,2.73-.61,3.68-1.75l.64-.76c.45-.54,1.1-.84,1.8-.84s1.35.31,1.8.84l.64.76c1.27,1.52,3.23,2.09,5.07,1.54v10.25l-6.68-5.91ZM52.89,49.45c-.2.86-.89,1.79-2.23,1.82l-.99.02c-1.44.03-2.77.7-3.67,1.82-.9,1.12-1.24,2.57-.96,3.98l.2.97c.27,1.32-.49,2.2-1.28,2.58-.8.38-1.96.42-2.82-.61l-.64-.76c-.92-1.1-2.27-1.73-3.71-1.73s-2.79.63-3.71,1.73l-.64.76c-.86,1.03-2.02.99-2.82.61-.8-.38-1.55-1.26-1.28-2.58l.2-.97c.29-1.41-.06-2.86-.96-3.98-.9-1.12-2.23-1.79-3.67-1.82l-.99-.02c-1.35-.03-2.04-.96-2.23-1.82s.02-2,1.22-2.61l.89-.45c1.28-.65,2.2-1.83,2.52-3.23.32-1.4,0-2.86-.87-4l-.6-.79c-.82-1.07-.52-2.19.03-2.89.39-.49,1.02-.91,1.79-.91.32,0,.66.07,1.01.23l.91.41c1.31.59,2.8.58,4.1-.05,1.29-.62,2.24-1.78,2.59-3.17l.24-.96c.33-1.31,1.39-1.77,2.28-1.77s1.95.47,2.28,1.77l.24.96c.35,1.39,1.3,2.55,2.59,3.17,1.29.62,2.79.64,4.1.05h0s.05-.02.07-.03l.83-.38c1.23-.56,2.25-.02,2.8.67.55.69.85,1.81.03,2.88l-.6.79c-.87,1.14-1.18,2.6-.86,4,.32,1.4,1.24,2.58,2.52,3.23l.89.45c1.2.61,1.42,1.75,1.22,2.61Z"/>
      <path class="cls-1" d="M36.78,36.09c-4.96,0-8.99,4.03-8.99,8.99s4.03,8.99,8.99,8.99,8.99-4.03,8.99-8.99-4.03-8.99-8.99-8.99ZM36.78,51.58c-3.58,0-6.5-2.92-6.5-6.5s2.92-6.5,6.5-6.5,6.5,2.92,6.5,6.5-2.92,6.5-6.5,6.5Z"/>
      <path class="cls-1" d="M6.31,9.59h20.4c.69,0,1.24-.56,1.24-1.24s-.56-1.24-1.24-1.24H6.31c-.69,0-1.24.56-1.24,1.24s.56,1.24,1.24,1.24Z"/>
      <path class="cls-1" d="M6.31,15.1h33.93c.69,0,1.24-.56,1.24-1.24s-.56-1.24-1.24-1.24H6.31c-.69,0-1.24.56-1.24,1.24s.56,1.24,1.24,1.24Z"/>
      <path class="cls-1" d="M6.31,20.6h27.27c.69,0,1.24-.56,1.24-1.24s-.56-1.24-1.24-1.24H6.31c-.69,0-1.24.56-1.24,1.24s.56,1.24,1.24,1.24Z"/>
      <path class="cls-1" d="M29.28,24.86c0-.69-.56-1.24-1.24-1.24H6.31c-.69,0-1.24.56-1.24,1.24s.56,1.24,1.24,1.24h21.73c.69,0,1.24-.56,1.24-1.24Z"/>
    </g>
  </g>
</svg>