<?xml version="1.0" encoding="UTF-8"?>
<svg id="Capa_2" data-name="Capa 2" xmlns="http://www.w3.org/2000/svg" viewBox="0 0 387.39 106.05">
  <defs>
    <style>
      .cls-1 {
        fill: #005aa7;
      }

      .cls-2 {
        fill: #ed6b1f;
      }

      .cls-3 {
        fill: #88898a;
      }

      .cls-4 {
        fill: #fac184;
      }
    </style>
  </defs>
  <g id="Capa_1-2" data-name="Capa 1">
    <g>
      <path class="cls-1" d="M107,68.7c-.61-1.39-10.39-14.98-11.44-16.57-3.72.99-7.59,1.26-11.41.78-5.13-1.02-8.52-7.64-8.52-7.64l4.35-5.23-6.01-6.79,1.9-1.83,6.04,6.35,3.16-3.7-5.7-6.18,2.04-1.77,5.43,5.84s3.4-4.07,4.28-5.2c2.86,2.38,5.05,5.47,6.35,8.96.83,3.7.93,7.53.27,11.27,0,1.15-.37,3.63-.37,3.63l9.85,13.58c4.35-4.86,5.74-9.85,6.55-17.83.36-6.67-.8-13.34-3.4-19.49-2.35-5.21-6.46-9.43-11.61-11.92-6.57-2.88-14.04-2.88-20.61,0-24.38,10.83-22,55.32,6.79,59.02,1.47.15,2.95.15,4.41,0,0,.71.44,1.29.54,2-2.01.18-3.74,1.5-4.45,3.4-.61,1.7-.65,3.4,2.99,5.37.46.23.83.6,1.05,1.05.29.88,0,1.85-.75,2.41-.76.78-1.47,1.59-2.14,2.44,0,0-2.19,2.97,0,3.09h17.76c.1-1.32-.41-2.84-1.47-3.64,0,0-3.05-1.82-3.49-2.78s.14-2.72,1.19-3.84c.93-.98,1.26-2.38.85-3.67-.28-.63-1.83-.8-2.21-1.66s.45-2.2,1.02-2.99c.65-1,1.49-2.09,2.51-1.87.73.35,1.03,1.23.68,1.95-.02.04-.04.08-.07.12-.31.75-1.33,1.61-1.05,2.34.8.73,1.48,1.47,1.6,2.75.17,1.22-1.77,5.03-.81,6.11l2.41,2.75c1.46,1.63,3.63,4.07,2.95,6.01-.35.84-1.69,1.11-2.78,1.12h-19.46c-1.7.05-3.11-1.79-3.4-3.57-.29-1.99,1.15-4.87,2.75-6.79-1.28-.7-2.32-1.75-3.02-3.02-.81-1.9-.74-4.06.17-5.91-2.88-.76-5.68-1.79-8.35-3.09-2.41-1.4-4.63-3.11-6.59-5.09-4.79-4.76-7.94-10.92-9-17.59-1.18-6.71-.82-13.59,1.05-20.14.86-2.76,2.12-5.38,3.74-7.78,3.7-5.54,9.05-9.78,15.28-12.12,6.49-2.33,13.63-2.08,19.93.71,16.23,8.15,20.07,23.84,18.13,36.91-.43,7.66-4.02,14.79-9.92,19.7"/>
      <path class="cls-2" d="M88.01,106.05c-41.31,0-74.92-23.79-74.92-53.02S46.7,0,88.01,0s74.92,23.79,74.92,53.02-33.61,53.02-74.92,53.02ZM88.01,1.87C47.73,1.87,14.96,24.82,14.96,53.02s32.77,51.15,73.04,51.15,73.04-22.95,73.04-51.15S128.28,1.87,88.01,1.87Z"/>
      <g>
        <path class="cls-4" d="M81.93,105.86c-38.39-2.24-68.56-25.02-68.56-52.81,0-18.13,13.15-39.99,49.74-50.07l-.44.08C35.34,7.95,6.21,27.11,6.21,53.17c0,27.87,33.44,50.68,75.72,52.73,0-.01,0-.02,0-.03Z"/>
        <path class="cls-4" d="M116.45,3.7c-1.51-.41-4.31-.91-4.31-.91,30.26,8.26,50.03,25.96,50.4,50.62.41,27.36-29.46,48.53-63.7,52.06h.31c39.74-3.64,71.21-24.68,71.21-52.16,0-24.61-25.24-42.93-53.91-49.6Z"/>
      </g>
      <g>
        <path class="cls-2" d="M176.41,53.31c0-23.86-26.75-43.99-63.38-50.37,33.09,6.77,57.07,26.7,57.07,50.22,0,26.76-31.45,49.01-71.62,52.4,43.66-3.15,77.93-25.43,77.93-52.26Z"/>
        <path class="cls-2" d="M76.87,105.36C36.95,101.83,6.21,79.81,6.21,53.17,6.21,29.78,29.89,9.96,62.67,3.07,26.41,9.58,0,29.61,0,53.31c0,26.7,33.51,48.74,76.87,52.05h0Z"/>
        <path class="cls-2" d="M109.26,2.24s0,.07,0,.1c1.27.18,2.52.38,3.77.6-1.24-.25-2.5-.48-3.77-.7Z"/>
      </g>
      <g>
        <path class="cls-3" d="M186.33,32.6c0-6.69,1.54-16.37,11.16-16.38,6.27,0,8.24,4.71,8.66,5.97s.98,2.68,1.02,3.91h-5.58c-.53-2.97-1.46-4.97-4.07-5.01-5.47-.08-5.01,11.83-5.01,11.83,0,2.54.31,10.4,5.11,10.52,3.12.07,4.06-2.95,3.94-7.57h-4.26v-4.84h10.17v16.63h-4.19v-3.71s-1.8,4.31-6.85,4.44c-7.63.2-10.1-9.1-10.1-15.79Z"/>
        <path class="cls-3" d="M218.15,35.09v12.56h-6.39v-30.69h11.07c4.95,0,9.66,1.74,9.66,8.26,0,2.81-1.11,6.05-4.53,7.42,3.28,1.33,3.66,2.33,4.23,5.51.28,1.57-.37,8.66.66,9.5h-6.48c-.5-1.31-.2-5.21-.24-7.25-.04-1.88-.56-4.33-2.53-4.9-1.56-.45-2.8-.41-4.43-.41h-1.02ZM218.39,30.15h3.82c1.88-.12,3.8-1.31,3.8-4.37,0-3.44-1.88-4.06-4.04-4.1h-3.57v8.47Z"/>
        <path class="cls-3" d="M250.16,16.96h5.73v21.4c0,6.79-3.89,10.03-9.7,10.03-5.49,0-9.78-3.23-9.78-10.03v-21.4h5.73v19.04c0,2.95.2,7.06,4.09,7.06s3.93-4.12,3.93-7.06v-19.04Z"/>
        <path class="cls-3" d="M259.78,47.65v-30.69h11.7c5.48,0,7.59,5.06,7.59,9.36,0,2.62-.93,6.23-3.1,7.94-1.8,1.43-4.41,1.76-6.62,1.72h-3.16v11.67h-6.42ZM266.2,30.67h3.14c2.5,0,4.24-.93,4.24-4.65,0-2.82-1.25-4.04-4.69-4.04h-2.69v8.69Z"/>
        <path class="cls-3" d="M282.2,29.85c.24-7.82,1.35-13.63,10.52-13.63s10.31,5.81,10.56,13.63v4.38c0,8.18-1.15,14.16-10.56,14.16s-10.52-5.97-10.52-14.16v-4.38ZM288.58,37.09c0,2.54.2,6.67,4.13,6.67s4.13-4.21,4.13-7.16v-7.86c0-2.46.12-7.9-4.13-7.9-4.5,0-4.13,5.36-4.13,7.73v8.51Z"/>
      </g>
      <g>
        <path class="cls-1" d="M182.52,89.44l9.43-36.64h9.96l8.96,36.64h-7.91l-1.95-8.22h-8.64l-1.95,8.22h-7.91ZM193.13,75.87h6.32l-3.11-16.02-3.22,16.02Z"/>
        <path class="cls-1" d="M228.17,63.94c.05-3.27-.91-6.5-4.69-6.5-2.31,0-3.79,1.59-3.79,4.08,0,2.78,1.77,3.86,3.94,5.23,2.26,1.42,7.1,3.49,9.02,5.35,2.36,2.3,3.1,4.49,3.1,7.67,0,6.94-5.28,10.55-12.02,10.55-8.26,0-11.88-4.59-11.88-11.14v-1.6h7.55v1.06c-.15,3.57.93,6.16,4.33,6.16,2.9,0,4.28-1.51,4.28-4.3,0-2.15-.98-3.61-2.75-4.84-3.59-2.78-8.73-4.13-11.53-7.79-1.13-1.66-1.77-3.66-1.77-5.62,0-6.25,4.2-10.33,11.48-10.33,10.97,0,11.33,8.4,11.38,12.02h-6.64Z"/>
        <path class="cls-1" d="M263.06,76.4c-.05.68-.1,1.42-.15,2.1-.34,6.69-3.04,11.82-10.71,11.82-11.31,0-13.02-7.13-13.02-16.9v-5.23c.3-9.33,2-16.27,13.02-16.27,6.15.1,10.13,3.22,10.62,9.48.1.93.2,2.51.15,3.44h-7.12s.83-7.39-4.1-7.39c-5.41,0-4.87,6.4-4.87,9.23v10.16c0,3.03.22,7.96,4.95,7.96,3.79,0,3.72-6.06,3.86-8.4h7.36Z"/>
        <path class="cls-1" d="M267.52,89.44v-36.64h20.59v6.27h-13.28v8.47h12.46v5.83h-12.46v10.01h13.64v6.05h-20.95Z"/>
        <path class="cls-1" d="M310.11,52.8h6.99v36.64h-8.66l-9.32-25.9-.06,25.9h-6.96v-36.64h8.55l9.47,25.58v-25.58Z"/>
        <path class="cls-1" d="M345.15,76.13c-.05.68-.1,1.69-.15,2.37-.34,6.69-3.13,11.82-10.81,11.82-11.31,0-13.37-7.13-13.37-16.9v-5.23c.3-9.33,2.35-16.27,13.37-16.27,6.15.1,9.86,3.22,10.35,9.48.1.93.2,2.58.15,3.5h-6.81c-.04-2.41-.3-7.46-3.69-7.46-5.41,0-5.63,6.4-5.63,9.23v10.16c0,3.03.47,8.07,5.19,8.07,3.79,0,3.78-6.44,3.93-8.78h7.46Z"/>
        <path class="cls-1" d="M349.43,89.44v-36.64h7.47v36.64h-7.47Z"/>
        <path class="cls-1" d="M361.28,68.19c.29-9.33,1.9-16.27,12.92-16.27s12.9,6.94,13.2,16.27v5.23c0,9.77-1.88,16.9-13.2,16.9s-12.92-7.13-12.92-16.9v-5.23ZM369.23,76.84c0,3.03.25,8.19,4.97,8.19s5.28-5.26,5.28-8.78v-9.38c0-2.93-.16-9.43-5.28-9.43-5.41,0-4.97,6.4-4.97,9.23v10.16Z"/>
      </g>
      <path class="cls-1" d="M163.59,92.63c0-1.74,1.42-3.17,3.18-3.17s3.17,1.42,3.17,3.17-1.42,3.18-3.17,3.18-3.18-1.42-3.18-3.18ZM169.34,92.63c0-1.42-1.15-2.57-2.57-2.57s-2.58,1.15-2.58,2.57,1.16,2.58,2.58,2.58,2.57-1.15,2.57-2.58ZM168.35,94.36h-.78l-.76-1.45h-.67v1.45h-.67v-3.43h1.66c.29,0,.67,0,.93.17.31.2.4.53.4.89,0,.62-.33.88-.94.92l.83,1.45ZM167.14,92.4c.38,0,.65-.08.65-.52s-.48-.44-.82-.44h-.83v.96h1Z"/>
    </g>
  </g>
</svg>